
<svg width="688" height="364" viewBox="current" fill="none" xmlns="http://www.w3.org/2000/svg">
<path d="M662.678 65.8342L676.151 80.1326C677.466 81.528 678.427 83.2183 678.954 85.0617L684.055 102.893C684.561 104.665 684.653 106.529 684.323 108.342L669.209 191.379C668.818 193.526 667.849 195.525 666.407 197.162L620.251 249.554C618.732 251.278 616.75 252.53 614.54 253.16L540.87 274.185C537.323 275.197 534.173 277.275 531.846 280.136L523.107 290.879C521.256 293.155 518.634 294.674 515.739 295.149L469.308 302.76C465.811 303.334 462.699 305.309 460.692 308.229C459.551 309.889 457.75 310.978 455.749 311.218L417.701 315.779C416.407 315.934 415.133 316.229 413.903 316.659L371.787 331.383C369.973 332.017 368.033 332.207 366.131 331.935L349.539 329.568C346.002 329.063 342.395 329.622 339.177 331.174L313.109 343.744C311.034 344.745 308.716 345.127 306.43 344.846L231.194 335.58C226.318 334.98 221.408 336.399 217.604 339.508L212.84 343.401C210.306 345.472 208.384 348.196 207.282 351.278L206.98 352.122C205.039 357.552 199.511 360.833 193.815 359.937L73.5889 341.015C70.3647 340.508 67.4863 338.709 65.6171 336.033L49.2012 312.533C47.9105 310.686 47.1663 308.512 47.0536 306.261L46.5468 296.136C46.211 289.428 42.1687 283.465 36.0621 280.67L22.8574 274.624C19.4413 273.06 16.9549 269.987 16.139 266.319L3.52289 209.611C2.43833 204.736 4.48651 199.699 8.66537 196.964L27.5191 184.625C32.4901 181.372 35.5357 175.876 35.6586 169.936L35.8242 161.93C35.8379 161.268 36.0088 160.619 36.3229 160.036C37.1453 158.509 38.8257 157.649 40.5453 157.875L75.6962 162.495C79.3633 162.977 83.0898 162.317 86.3688 160.606L155.914 124.317C158.571 122.931 161.652 122.589 164.549 123.359L186.007 129.065C191.409 130.501 196.844 126.866 197.579 121.325C197.716 120.294 198.335 119.39 199.246 118.889L218.661 108.223C219.385 107.825 220.147 107.504 220.936 107.263L298.829 83.4888C303.021 82.2096 306.601 79.4453 308.9 75.7143L311.923 70.8073C313.671 67.9698 316.521 65.9871 319.789 65.3342L320.648 65.1625C323 64.6926 325.44 64.9385 327.651 65.8685L339.26 70.7509C344.219 72.8365 349.85 72.5948 354.612 70.092L385.321 53.9521C388.997 52.0197 393.469 52.4475 396.713 55.042C400.507 58.0769 405.449 59.2797 410.213 58.3279L447.093 50.9601C449.087 50.5618 451.157 50.8384 452.976 51.7464C460.653 55.5773 469.976 52.2794 473.536 44.4737L473.678 44.1625C474.924 41.431 477.389 39.4502 480.325 38.8218L520.716 30.1763C522.098 29.8806 523.533 29.9693 524.868 30.4326L527.615 31.3863C535.19 34.0163 543.097 28.3914 543.097 20.3728C543.097 18.7217 543.818 17.1529 545.071 16.0779L556.091 6.626C558.266 4.7601 561.038 3.73438 563.904 3.73438H569.838C573.46 3.73438 576.888 5.36979 579.166 8.18465L583.385 13.3973C589.799 21.3219 602.032 20.8468 607.812 12.4486C609.539 9.93903 612.391 8.43999 615.437 8.43999H621.082C627.709 8.43999 633.082 13.8126 633.082 20.44V26.5207C633.082 33.1459 636.721 39.2356 642.556 42.3736L658.936 51.1827C660.573 52.0632 661.307 54.0184 660.654 55.7587C659.352 59.2284 660.137 63.1368 662.678 65.8342Z" fill="#C7CCC9" stroke="white" stroke-width="6"/>
</svg>
